# xmcd
#
# Track frame offsets: 
#        150
#        18386
#        33892
#        45924
#        63853
#        76815
#        92635
#        107718
#        124578
#        138935
#        155405
#
# Disc length: 2259 seconds
#
# Revision: 0
# Processed by: cddbd v1.5.2PL0 Copyright (c) Steve Scherf et al.
# Submitted via: ExactAudioCopyFreeDBPlugin 1.0
#
DISCID=7708d10b
DTITLE=John Nèmeth and the Blue Dreamers - Feelin Freaky
DYEAR=2016
DGENRE=Blues
TTITLE0=Long Black Cadillac
TTITLE1=Rainy Day
TTITLE2=Under The Gun
TTITLE3=Gave Up On You
TTITLE4=You Really Do Want That Woman
TTITLE5=My Sweet Love
TTITLE6=I'm Funkin' Out
TTITLE7=Feelin Freaky
TTITLE8=Get Off That Butt
TTITLE9=Kool Aid Pickle
TTITLE10=S T O N E D 
EXTD=
EXTT0=
EXTT1=
EXTT2=
EXTT3=
EXTT4=
EXTT5=
EXTT6=
EXTT7=
EXTT8=
EXTT9=
EXTT10=
PLAYORDER=
